<svg xmlns="http://www.w3.org/2000/svg" version="1.1" xmlns:xlink="http://www.w3.org/1999/xlink" xmlns:svgjs="http://svgjs.dev/svgjs" width="100%" height="100%" viewBox="0 0 1000 600"><rect width="1000" height="600" x="0" y="0" fill="white"/><g><rect width="333.3333333333333" height="333.3333333333333" rx="13.333333333333334" ry="13.333333333333334" y="339.9554947018913" fill="white" transform="matrix(0.3934117341438629,0,0,0.3934117341438629,0,100.68888805906853)" x="317.7331237792968"/><path d="M424.46211452928395 581.6221709868497L424.46211452928395 581.6221709868497Q424.04660207143695 578.4167891691728 424.46211452928395 574.795894893649L424.46211452928395 574.795894893649Q434.7312081303596 573.7274342877566 439.21280678285217 572.7480120656888Q443.6944054353448 571.7982693048958 444.76286604123703 568.592887487219Q445.8313266471293 565.3875056695421 445.8313266471293 557.7005251993728L445.8313266471293 557.7005251993728L445.8313266471293 458.3336888513921Q445.8313266471293 449.34081208513214 444.76286604123703 445.51216158068485Q443.6944054353448 441.65383161496277 439.3018451666765 440.49633262524617Q434.93896435928315 439.30915417425473 425.11506267732926 438.44844979728595L425.11506267732926 438.44844979728595Q424.6698707582074 435.2430679796092 425.11506267732926 431.6221737040854L425.11506267732926 431.6221737040854Q430.2199300165923 431.6221737040854 433.7517859082917 431.71121208790976Q437.28364179999113 431.8299299330089 441.1419717657132 431.8299299330089Q444.9706222701605 431.8299299330089 450.84715560256797 431.94864777810807Q456.7236889349754 432.0376861619324 466.5475906169293 432.0376861619324L466.5475906169293 432.0376861619324Q478.745849200866 432.0376861619324 491.35962024264967 431.94864777810807Q503.9437118231586 431.8299299330089 514.7470357271804 431.8299299330089Q525.5503596312021 431.8299299330089 532.2579178793037 431.71121208790976Q538.9951555886798 431.6221737040854 539.4403475078016 431.6221737040854L539.4403475078016 431.6221737040854Q540.5088081136939 439.72466663210173 541.7850249485098 448.50978716943814Q543.0612417833254 457.26522824549977 544.5452148470647 467.08912992745366L544.5452148470647 467.08912992745366Q542.8534855544019 467.2968861563771 541.04303841664 467.2968861563771Q539.2029118176033 467.2968861563771 537.5111825249405 467.08912992745366L537.5111825249405 467.08912992745366Q531.9611232665559 452.7836295930072 524.48189902531 446.9961346444241L524.48189902531 446.9961346444241Q516.7652390938658 440.793127237994 500.32281754763477 440.793127237994L500.32281754763477 440.793127237994L469.33745997675913 440.793127237994L469.33745997675913 501.27986931600617L483.43520408228204 501.27986931600617Q493.7042976833577 501.27986931600617 499.04660071281904 499.88493463609126Q504.3889037422804 498.48999995617635 506.9413374119119 493.68192722966114Q509.52345054281824 488.87385450314594 511.00742360655744 478.4266841344216L511.00742360655744 478.4266841344216Q514.8657535722796 477.7737359863763 518.2788916188799 478.4266841344216L518.2788916188799 478.4266841344216Q518.0711353899565 487.3898814394067 517.9524175448571 492.6134666237689Q517.833699699758 497.8667312694059 517.833699699758 500.86435685815917Q517.833699699758 503.8323029856377 517.833699699758 506.414416116544L517.833699699758 506.414416116544Q517.833699699758 508.759093557252 517.833699699758 511.7567191460053Q517.833699699758 514.7543447347587 517.9524175448571 520.0966477642199Q518.0711353899565 525.4389507936812 518.2788916188799 534.6099043275899L518.2788916188799 534.6099043275899Q515.073509801203 535.2628524756351 511.00742360655744 534.6099043275899L511.00742360655744 534.6099043275899Q509.7312067717417 523.3020295818967 507.14909364083536 518.2565211651832Q504.5966599712039 513.2406922097446 499.58083101576517 511.96447537492884Q494.5650020603265 510.68825854011305 485.3643690651431 510.68825854011305L485.3643690651431 510.68825854011305L469.33745997675913 510.68825854011305L469.33745997675913 554.9106558395429Q469.33745997675913 561.52917570382 469.7529724346061 565.1797494406186Q470.1981643537279 568.8006437161424 472.33508556551243 570.9375649279269L472.33508556551243 570.9375649279269Q474.47200677729694 572.866729910788 478.83488758469036 573.5196780588332Q483.22744785335857 574.1429467456038 491.5673764715732 574.795894893649L491.5673764715732 574.795894893649Q492.19064515834367 578.2090329402494 491.5673764715732 581.6221709868497L491.5673764715732 581.6221709868497Q487.08577781908065 581.6221709868497 480.67501418372706 581.5331326030254Q474.26425054837347 581.414414757926 467.94252529684417 581.2956969128269Q461.65047950658976 581.2066585290025 457.3766370830207 581.2066585290025L457.3766370830207 581.2066585290025Q453.31055088837513 581.2066585290025 447.3152997108685 581.2956969128269Q441.3497279946367 581.414414757926 435.26543843330575 581.5331326030254Q429.15146941070003 581.6221709868497 424.46211452928395 581.6221709868497Z " fill="white" transform="matrix(0.3934117341438629,0,0,0.3934117341438629,0,100.68888805906853)"/><path d="M734.6032257171411 579.2623222537262L734.6032257171411 579.2623222537262Q734.1963541021245 576.1429732052655 734.6032257171411 573.0236241568049L734.6032257171411 573.0236241568049Q740.0553053583636 572.4268791214471 743.3916526014999 571.6402606657483Q746.7008750703015 570.880766984384 749.0336056630634 568.8192841349666Q751.3934610301598 566.757801285549 753.5363182025807 562.5805860380452Q755.6791753750014 558.3762460162069 758.608651003121 550.7541844282291L758.608651003121 550.7541844282291L800.7876750931761 442.55345960814594Q802.9576570399313 441.76684115244717 805.9685069910541 441.387094311765Q809.0064817165115 441.0073474710828 811.1493388889322 441.0073474710828L811.1493388889322 441.0073474710828L853.1384895586463 552.5172947599677Q855.8780917664247 559.5426113125878 857.6412020981634 563.5570779140851Q859.3771876555676 567.5444197412478 861.5471696023227 569.3075300729864Q863.6900267747436 571.0706404047252 866.9992492435453 571.7487597630862Q870.3355964866815 572.4268791214471 876.1945477429207 573.0236241568049L876.1945477429207 573.0236241568049Q876.5742945836029 576.1429732052655 876.1945477429207 579.2623222537262L876.1945477429207 579.2623222537262Q869.3591046106417 579.2623222537262 862.1167898633461 579.072448833385Q854.9015998903848 578.882575413044 847.6592851430893 578.882575413044L847.6592851430893 578.882575413044Q840.254221749787 578.882575413044 832.7406592591469 579.072448833385Q825.1999719941724 579.2623222537262 817.7949086008701 579.2623222537262L817.7949086008701 579.2623222537262Q817.1981635655126 576.3328466256065 817.7949086008701 573.0236241568049L817.7949086008701 573.0236241568049Q827.3699539409278 572.0471322807649 831.0589232504116 571.1520147277284Q834.77501733423 570.2840219490264 834.77501733423 566.5679278652079L834.77501733423 566.5679278652079Q834.77501733423 565.0218157281448 834.2053970732068 563.0688319760651Q833.6086520378491 561.1158482239854 832.6321601618092 558.1863725958658L832.6321601618092 558.1863725958658L821.5110026846886 528.1049978589713L777.5688682628949 528.1049978589713L767.8039495024963 555.0398987730707Q766.4205860114399 558.7559928568891 765.7424666530788 561.1972225469888Q765.0643472947178 563.6384522370884 765.0643472947178 565.5914359891681L765.0643472947178 565.5914359891681Q765.0643472947178 569.9042751083442 769.0516891218806 570.9621413073875Q773.0661557233778 572.0471322807649 782.2343294484186 573.0236241568049L782.2343294484186 573.0236241568049Q782.6412010634352 576.3328466256065 782.2343294484186 579.2623222537262L782.2343294484186 579.2623222537262Q775.6158845108151 579.2623222537262 769.1601882192184 579.072448833385Q762.7044919276215 578.882575413044 756.086046990018 578.882575413044L756.086046990018 578.882575413044Q750.606842574461 578.882575413044 745.5345097739206 579.072448833385Q740.4621769733802 579.2623222537262 734.6032257171411 579.2623222537262ZM799.4314363764539 467.94224838518227L780.4983438910145 519.8861912356358L818.5815270565689 519.8861912356358L799.4314363764539 467.94224838518227ZM938.8799012298127 579.2623222537262L938.8799012298127 579.2623222537262Q938.473029614796 576.1429732052655 938.8799012298127 573.2134975771459L938.8799012298127 573.2134975771459Q944.9287259063929 572.8337507364637 947.8582015345125 571.9386331834272Q950.7876771626321 571.0706404047252 951.764169038672 568.1411647766055Q952.7406609147118 565.2116891484859 952.7406609147118 558.7559928568891L952.7406609147118 558.7559928568891L952.7406609147118 519.3165709746125Q952.7406609147118 507.59866846213424 949.1330659282312 501.8210915288985Q945.5254709417505 496.070639369997 934.7840603053122 496.070639369997L934.7840603053122 496.070639369997Q929.114982469414 496.070639369997 923.8256514741981 498.13212221941455Q918.5634452533167 500.16648029449755 912.3247471563953 505.8355581303956L912.3247471563953 505.8355581303956L912.3247471563953 556.8030091048093Q912.3247471563953 564.4250706927871 913.1927399350975 567.7342931615889Q914.0607327137997 571.0706404047252 916.9902083419191 571.9386331834272Q919.9196839700388 572.8337507364637 926.1855068412946 573.2134975771459L926.1855068412946 573.2134975771459Q926.5652536819767 576.1429732052655 926.1855068412946 579.2623222537262L926.1855068412946 579.2623222537262Q920.7063024257376 579.2623222537262 914.765976846495 579.072448833385Q908.7985264929182 578.882575413044 901.9630833606392 578.882575413044L901.9630833606392 578.882575413044Q895.7243852637179 578.882575413044 889.6484358128031 579.072448833385Q883.599611136223 579.2623222537262 877.7406598799838 579.2623222537262L877.7406598799838 579.2623222537262Q877.1710396189605 576.1429732052655 877.7406598799838 573.2134975771459L877.7406598799838 573.2134975771459Q884.3862295919217 572.8337507364637 887.5055786403824 571.9386331834272Q890.6249276888431 571.0706404047252 891.6014195648828 568.1411647766055Q892.5779114409228 565.2116891484859 892.5779114409228 558.7559928568891L892.5779114409228 558.7559928568891L892.5779114409228 515.0037318554365Q892.5779114409228 507.4087950417932 891.8997920825617 503.6927009579748Q891.2216727242006 499.97660687415646 888.1836979987434 498.5118690600967Q885.1728480476205 497.04713124603694 877.9305333003248 496.070639369997L877.9305333003248 496.070639369997Q877.3609130393016 493.33103716221854 877.9305333003248 490.9983065694567L877.9305333003248 490.9983065694567Q894.747893387678 487.66195932632047 908.7985264929182 482.0200062647569L908.7985264929182 482.0200062647569L912.10774896172 483.18637156113783L912.10774896172 497.83374970173566Q921.1131740407542 489.61494307840024 929.6846027304374 486.30572060959844Q938.283156194455 482.9964981407967 946.0950912027739 482.9964981407967L946.0950912027739 482.9964981407967Q958.9793590116332 482.9964981407967 965.8148021439121 490.5914349544401Q972.6502452761911 498.21349654241783 972.6502452761911 512.4811278423335L972.6502452761911 512.4811278423335L972.6502452761911 556.8030091048093Q972.6502452761911 564.4250706927871 973.5453628292277 567.7342931615889Q974.4133556079297 571.0706404047252 977.3428312360494 571.9386331834272Q980.2723068641689 572.8337507364637 986.7280031557658 573.2134975771459L986.7280031557658 573.2134975771459Q987.107749996448 576.1429732052655 986.7280031557658 579.2623222537262L986.7280031557658 579.2623222537262Q980.8690518995265 579.2623222537262 975.3084731609663 579.072448833385Q969.7207696480715 578.882575413044 962.3157062547693 578.882575413044L962.3157062547693 578.882575413044Q955.0733915074737 578.882575413044 949.7026861892545 579.072448833385Q944.3319808710352 579.2623222537262 938.8799012298127 579.2623222537262ZM1071.4929229508925 581.6221776208225L1071.4929229508925 581.6221776208225L1068.3464491280974 580.238814129766L1067.586955446733 566.757801285549Q1060.751512314454 574.1899894531858 1053.6176966644962 577.7975844396664Q1046.4838810145384 581.4051794261469 1037.8853275505207 581.4051794261469L1037.8853275505207 581.4051794261469Q1025.78767819736 581.4051794261469 1016.7008787953225 574.8681088115469Q1007.6140793932849 568.3310381969467 1002.7316200130856 557.7795009808492Q997.8491606328863 547.2279637647518 997.8491606328863 534.9404409912504L997.8491606328863 534.9404409912504Q997.8491606328863 520.6728096913346 1004.0064844068044 508.9549071788563Q1010.1638081807224 497.23700466637797 1021.3934647551808 490.1031890164202Q1032.6231213296392 482.9964981407967 1047.650246310919 482.9964981407967L1047.650246310919 482.9964981407967Q1052.1529588504363 482.9964981407967 1057.0354182306355 483.67461749915776Q1061.9178776108347 484.3527368575187 1067.1800838317163 485.92597376891626L1067.1800838317163 485.92597376891626L1067.1800838317163 460.91693183256217Q1067.1800838317163 454.86810715598193 1066.0137185353356 451.8301324305246Q1064.8473532389544 448.8192824794017 1061.429631672815 447.54441808568293Q1058.0119101066753 446.2695536919643 1051.1764669743966 445.6728086566066L1051.1764669743966 445.6728086566066Q1050.5797219390388 443.1502046435036 1051.1764669743966 440.41060243572514L1051.1764669743966 440.41060243572514Q1058.9884019827155 439.4341105596853 1067.1800838317163 437.37262771026775Q1075.398890455052 435.33826963518476 1083.9703191447352 431.6221755513664L1083.9703191447352 431.6221755513664L1087.3066663878712 432.78854084774736Q1087.1167929675303 437.1013799669234 1087.0082938701926 442.55345960814594Q1086.8997947728544 448.0326640237029 1086.8997947728544 454.46123554096533L1086.8997947728544 454.46123554096533L1086.8997947728544 551.3509294635868Q1086.8997947728544 558.7559928568891 1087.4965398082122 562.4720869407074Q1088.09328484357 566.1881810245258 1091.0227604716897 567.6529188385856Q1093.952236099809 569.1176566526455 1100.977552652429 570.2840219490264L1100.977552652429 570.2840219490264Q1101.5471729134524 572.8337507364637 1100.977552652429 575.5462281699077L1100.977552652429 575.5462281699077Q1093.1656176441102 576.7397182406231 1085.7334294764737 578.0959569573453Q1078.3283660831712 579.4521956740672 1071.4929229508925 581.6221776208225ZM1067.3699572520572 557.7795009808492L1067.3699572520572 502.5263356615939Q1058.9884019827155 490.9983065694567 1045.3175157181572 490.9983065694567L1045.3175157181572 490.9983065694567Q1031.8365028739404 490.9983065694567 1025.0010597416613 500.8445996528586Q1018.1656166093823 510.7180175105949 1018.1656166093823 528.1049978589713L1018.1656166093823 528.1049978589713Q1018.1656166093823 538.249663460052 1020.9052188171607 547.6348353797684Q1023.6448210249392 556.9928825251504 1029.8835191218604 563.0688319760651Q1036.1222172187818 569.1176566526455 1046.4838810145384 569.1176566526455L1046.4838810145384 569.1176566526455Q1059.5580222437384 569.1176566526455 1067.3699572520572 557.7795009808492L1067.3699572520572 557.7795009808492ZM1155.8509711310026 581.4051794261469L1155.8509711310026 581.4051794261469Q1141.9902114461033 581.4051794261469 1132.415166106046 574.9766079088846Q1122.840120765988 568.5209116172877 1117.8762870627857 557.6981266578459Q1112.8853285852488 546.8482169240697 1112.8853285852488 533.7740756948693L1112.8853285852488 533.7740756948693Q1112.8853285852488 520.2930628506524 1118.0661604831266 508.7650337585152Q1123.246992381005 497.23700466637797 1133.2017845617447 490.1031890164202Q1143.1565767424845 482.9964981407967 1157.4242080424 482.9964981407967L1157.4242080424 482.9964981407967Q1174.594190196101 482.9964981407967 1184.277734633496 493.24966283921526Q1193.9341542965567 503.5028275376338 1193.9341542965567 519.6963178152947L1193.9341542965567 519.6963178152947Q1193.9341542965567 521.6493015673744 1193.825655199219 523.1140393814343Q1193.7442808762157 524.578777195494 1193.5544074558748 525.5552690715339L1193.5544074558748 525.5552690715339L1132.0354192653635 524.9856488105106Q1132.0354192653635 525.745142491875 1132.0354192653635 526.3418875272326L1132.0354192653635 526.3418875272326Q1132.0354192653635 545.4919782073476 1140.8238461497222 556.4232622641272Q1149.6122730340812 567.3545463209067 1165.42601647106 567.3545463209067L1165.42601647106 567.3545463209067Q1178.6900311206014 567.3545463209067 1191.6014237037948 558.7559928568891L1191.6014237037948 558.7559928568891Q1193.5544074558748 561.1158482239854 1194.5308993319145 563.2587053964062L1194.5308993319145 563.2587053964062Q1177.930537439237 581.4051794261469 1155.8509711310026 581.4051794261469ZM1132.605039526387 517.743334063215L1132.605039526387 517.743334063215L1173.0480780590378 516.9567156075162Q1173.2379514793788 516.576968766834 1173.2379514793788 515.8988494084731Q1173.2379514793788 515.220730050112 1173.2379514793788 515.0037318554365L1173.2379514793788 515.0037318554365Q1173.2379514793788 504.47931941367364 1168.6538646168583 497.42687808671906Q1164.0426529800034 490.401561534099 1155.0643526753038 490.401561534099L1155.0643526753038 490.401561534099Q1146.6827974059615 490.401561534099 1140.4169745347058 497.23700466637797Q1134.1782764377845 504.072447798657 1132.605039526387 517.743334063215ZM1207.605040561115 579.2623222537262L1207.605040561115 579.2623222537262Q1207.0082955257571 576.1429732052655 1207.605040561115 573.2134975771459L1207.605040561115 573.2134975771459Q1214.2506102730526 572.8337507364637 1217.3699593215133 571.9386331834272Q1220.489308369974 571.0706404047252 1221.4658002460142 568.1411647766055Q1222.442292122054 565.2116891484859 1222.442292122054 558.7559928568891L1222.442292122054 558.7559928568891L1222.442292122054 515.0037318554365Q1222.442292122054 507.4087950417932 1221.7641727636928 503.6927009579748Q1221.0860534053318 499.97660687415646 1218.0480786798744 498.5118690600967Q1215.0372287287514 497.04713124603694 1207.794913981456 496.070639369997L1207.794913981456 496.070639369997Q1207.2252937204325 493.33103716221854 1207.794913981456 490.9983065694567L1207.794913981456 490.9983065694567Q1215.6068489897748 489.42506965805916 1223.0390371574117 487.3907115829761Q1230.4441005507138 485.3292287335586 1238.6629071740495 482.0200062647569L1238.6629071740495 482.0200062647569L1241.972129642851 483.18637156113783L1241.972129642851 500.35635371483863Q1255.6430159074089 482.9964981407967 1269.910647207325 482.9964981407967L1269.910647207325 482.9964981407967Q1276.746090339604 482.9964981407967 1280.0553128084057 486.60409312727734Q1283.3916600515417 490.21168811375793 1283.3916600515417 494.71440065327505L1283.3916600515417 494.71440065327505Q1283.3916600515417 499.97660687415646 1279.8654393880643 502.79758340493834Q1276.3392187245872 505.6456847100545 1271.8636309594044 505.6456847100545L1271.8636309594044 505.6456847100545Q1268.147536875586 505.6456847100545 1264.5399418891056 503.6927009579748Q1260.9323469026249 501.7397172058951 1259.1692365708864 497.6438762813946L1259.1692365708864 497.6438762813946Q1252.5236668589487 497.6438762813946 1247.3428349610704 502.79758340493834Q1242.162003063192 507.9784153028164 1242.162003063192 514.8138584350954L1242.162003063192 514.8138584350954L1242.162003063192 556.8030091048093Q1242.162003063192 564.4250706927871 1243.0571206162285 567.7342931615889Q1243.9251133949306 571.0706404047252 1247.7497065760872 571.9386331834272Q1251.5471749829085 572.8337507364637 1260.1457284469261 573.2134975771459L1260.1457284469261 573.2134975771459Q1260.5254752876085 575.9530997849243 1260.1457284469261 579.2623222537262L1260.1457284469261 579.2623222537262Q1253.5001587349884 579.2623222537262 1246.4748421823683 579.072448833385Q1239.4495256297482 578.882575413044 1232.0173374621113 578.882575413044L1232.0173374621113 578.882575413044Q1224.8021474891502 578.882575413044 1219.2144439762556 579.072448833385Q1213.6538652376953 579.2623222537262 1207.605040561115 579.2623222537262ZM1296.6556747010832 548.2044556407917L1296.6556747010832 548.2044556407917Q1299.5851503292029 561.1158482239854 1306.0408466207996 567.8427922589268Q1312.4694181380619 574.569736293868 1322.641208513477 574.569736293868L1322.641208513477 574.569736293868Q1330.263270101455 574.569736293868 1335.5254763223365 570.9621413073875Q1340.7876825432177 567.3545463209067 1340.7876825432177 559.5426113125878L1340.7876825432177 559.5426113125878Q1340.7876825432177 553.6836600563487 1337.9667060124361 550.1574393928715Q1335.1457294816541 546.6583435037286 1330.1547710041173 544.217113813629Q1325.16381252658 541.7758841235293 1318.9251144296586 539.2261553360919L1318.9251144296586 539.2261553360919Q1311.7099244566975 536.2966797079723 1305.3627272624385 532.8789581418329Q1299.0155300681795 529.4612365756933 1295.0010634666824 524.2804046778152Q1290.9865968651852 519.1266975542715 1290.9865968651852 510.907890930936L1290.9865968651852 510.907890930936Q1290.9865968651852 501.54984378555406 1295.977555342722 495.39252001163607Q1300.968513820259 489.23519623771807 1308.8618231515816 486.11584718925735Q1316.7822572572381 482.9964981407967 1325.7605575619377 482.9964981407967L1325.7605575619377 482.9964981407967Q1330.263270101455 482.9964981407967 1334.7388578666378 483.56611840181995Q1339.2415704061546 484.16286343717763 1339.621317246837 484.16286343717763L1339.621317246837 484.16286343717763Q1343.5272847509964 484.7324836982009 1346.8636319941324 484.84098279553865Q1350.172854462934 484.9494818928764 1350.362727883275 484.9494818928764L1350.362727883275 484.9494818928764Q1350.5526013036165 484.9494818928764 1351.257845436312 484.9494818928764Q1351.935964794673 484.9494818928764 1353.1023300910538 484.7324836982009L1353.1023300910538 484.7324836982009Q1353.1023300910538 490.9983065694567 1353.2922035113947 497.42687808671906Q1353.4820769317357 503.8825743783159 1354.0788219670935 511.0977643512771L1354.0788219670935 511.0977643512771Q1353.8889485467525 511.0977643512771 1353.2922035113947 511.0977643512771L1353.2922035113947 511.0977643512771Q1351.5290931796562 511.31476254595265 1350.0643553655964 511.396136868956Q1348.5996175515365 511.5046359662937 1347.2433788348144 511.31476254595265L1347.2433788348144 511.31476254595265Q1344.693650047377 500.35635371483863 1339.7298163441747 495.39252001163607Q1334.7388578666378 490.401561534099 1325.7605575619377 490.401561534099L1325.7605575619377 490.401561534099Q1317.758749133278 490.401561534099 1312.957664076082 493.9277821975763Q1308.1837037932205 497.42687808671906 1308.1837037932205 503.6927009579748L1308.1837037932205 503.6927009579748Q1308.1837037932205 508.7650337585152 1311.3030528416812 511.99288190431366Q1314.4224018901418 515.220730050112 1318.9251144296586 517.3635872225328Q1323.4278269691758 519.5064443949536 1327.5236678936767 521.0796813063512L1327.5236678936767 521.0796813063512Q1335.1457294816541 524.0091569344708 1342.0625469369365 527.6167519209514Q1349.0064891665534 531.2243469074319 1353.4007026087324 536.89342474333Q1357.794916050912 542.5625025792281 1357.794916050912 552.1104231449511L1357.794916050912 552.1104231449511Q1357.794916050912 562.2822135203663 1352.6140841530337 568.8192841349666Q1347.4332522551558 575.3563547495668 1339.431443826496 578.3943294750242Q1331.4296353978361 581.4051794261469 1322.641208513477 581.4051794261469L1322.641208513477 581.4051794261469Q1317.568875712937 581.4051794261469 1312.5779172353996 580.6456857447826Q1307.5869587578627 579.8590672890838 1307.2072119171803 579.8590672890838L1307.2072119171803 579.8590672890838Q1306.8274650764984 579.8590672890838 1303.979363771382 579.4521956740672Q1301.1583872406004 579.072448833385 1297.7406656744606 578.6927019927028Q1294.3229441083213 578.2858303776862 1291.773215320884 578.2858303776862L1291.773215320884 578.2858303776862Q1291.773215320884 572.2370057011061 1291.284969382864 564.8048175334693Q1290.7967234448442 557.399754140167 1290.2271031838209 548.4214538354672L1290.2271031838209 548.4214538354672Q1290.6068500245028 548.4214538354672 1291.2035950598606 548.4214538354672L1291.2035950598606 548.4214538354672Q1292.9395806172647 548.2044556407917 1294.2144450109836 548.1230813177884Q1295.489309404702 548.0145822204506 1296.6556747010832 548.2044556407917ZM1420.100522697122 581.4051794261469L1420.100522697122 581.4051794261469Q1405.8328913972064 581.4051794261469 1395.1999798581055 575.2749804265635Q1384.5399435446702 569.1176566526455 1378.6809922884313 558.2677469188692Q1372.822041032192 547.4449619594275 1372.822041032192 533.3672040798527L1372.822041032192 533.3672040798527Q1372.822041032192 518.1502056782316 1378.97936480611 506.81205000643547Q1385.136688580028 495.47389433463934 1396.2578460571485 489.23519623771807Q1407.4061283086035 482.9964981407967 1421.836508254526 482.9964981407967L1421.836508254526 482.9964981407967Q1436.1041395544416 482.9964981407967 1446.6556767705392 489.23519623771807Q1457.2072139866364 495.47389433463934 1463.0661652428757 506.43230316575335Q1468.9251164991147 517.3635872225328 1468.9251164991147 531.2243469074319L1468.9251164991147 531.2243469074319Q1468.9251164991147 545.4919782073476 1462.7677927251966 556.9115082021472Q1456.6104689512786 568.3310381969467 1445.679184894499 574.8681088115469Q1434.74790083772 581.4051794261469 1420.100522697122 581.4051794261469ZM1394.9016073404264 531.0344734870908L1394.9016073404264 531.0344734870908Q1394.9016073404264 550.9440578485702 1401.4386779550268 562.5805860380452Q1407.9757485696268 574.1899894531858 1421.0770145731617 574.1899894531858L1421.0770145731617 574.1899894531858Q1433.5544107670044 574.1899894531858 1440.199980478942 563.1502062990685Q1446.8455501908802 552.1104231449511 1446.8455501908802 533.5570775001938L1446.8455501908802 533.5570775001938Q1446.8455501908802 513.8373665590556 1440.199980478942 502.11946404657726Q1433.5544107670044 490.401561534099 1420.8600163784863 490.401561534099L1420.8600163784863 490.401561534099Q1408.3826201846437 490.401561534099 1401.6285513753678 501.1429721705374Q1394.9016073404264 511.88438280697585 1394.9016073404264 531.0344734870908ZM1543.138499078144 579.2623222537262L1543.138499078144 579.2623222537262Q1542.7316274631276 576.1429732052655 1543.138499078144 573.2134975771459L1543.138499078144 573.2134975771459Q1549.1873237547243 572.8337507364637 1552.116799382844 571.9386331834272Q1555.0462750109632 571.0706404047252 1556.0227668870034 568.1411647766055Q1556.9992587630431 565.2116891484859 1556.9992587630431 558.7559928568891L1556.9992587630431 558.7559928568891L1556.9992587630431 519.3165709746125Q1556.9992587630431 507.59866846213424 1553.3916637765624 501.8210915288985Q1549.7569440157476 496.070639369997 1539.015533379309 496.070639369997L1539.015533379309 496.070639369997Q1533.3735803177456 496.070639369997 1528.0842493225296 498.13212221941455Q1522.822043101648 500.16648029449755 1516.5562202303922 505.8355581303956L1516.5562202303922 505.8355581303956L1516.5562202303922 556.8030091048093Q1516.5562202303922 564.4250706927871 1517.4513377834287 567.7342931615889Q1518.3193305621307 571.0706404047252 1521.2488061902504 571.9386331834272Q1524.1782818183701 572.8337507364637 1530.4441046896259 573.2134975771459L1530.4441046896259 573.2134975771459Q1530.8238515303083 576.1429732052655 1530.4441046896259 579.2623222537262L1530.4441046896259 579.2623222537262Q1524.964900274069 579.2623222537262 1518.9974499204918 579.072448833385Q1513.0571243412496 578.882575413044 1506.2216812089705 578.882575413044L1506.2216812089705 578.882575413044Q1499.9558583377147 578.882575413044 1493.9070336611344 579.072448833385Q1487.858208984554 579.2623222537262 1481.9992577283151 579.2623222537262L1481.9992577283151 579.2623222537262Q1481.4025126929573 576.1429732052655 1481.9992577283151 573.2134975771459L1481.9992577283151 573.2134975771459Q1488.6448274402528 572.8337507364637 1491.7641764887135 571.9386331834272Q1494.8835255371746 571.0706404047252 1495.8600174132143 568.1411647766055Q1496.836509289254 565.2116891484859 1496.836509289254 558.7559928568891L1496.836509289254 558.7559928568891L1496.836509289254 515.0037318554365Q1496.836509289254 507.4087950417932 1496.158389930893 503.6927009579748Q1495.480270572532 499.97660687415646 1492.4422958470745 498.5118690600967Q1489.4314458959516 497.04713124603694 1482.189131148656 496.070639369997L1482.189131148656 496.070639369997Q1481.6195108876327 493.33103716221854 1482.189131148656 490.9983065694567L1482.189131148656 490.9983065694567Q1498.979366461675 487.66195932632047 1513.0571243412496 482.0200062647569L1513.0571243412496 482.0200062647569L1516.3663468100513 483.18637156113783L1516.3663468100513 497.83374970173566Q1525.3446471147508 489.61494307840024 1533.9432005787685 486.30572060959844Q1542.5417540427861 482.9964981407967 1550.353689051105 482.9964981407967L1550.353689051105 482.9964981407967Q1563.2379568599645 482.9964981407967 1570.0733999922436 490.5914349544401Q1576.9088431245223 498.21349654241783 1576.9088431245223 512.4811278423335L1576.9088431245223 512.4811278423335L1576.9088431245223 556.8030091048093Q1576.9088431245223 564.4250706927871 1577.8039606775592 567.7342931615889Q1578.6719534562612 571.0706404047252 1581.6014290843805 571.9386331834272Q1584.5309047125002 572.8337507364637 1590.9866010040969 573.2134975771459L1590.9866010040969 573.2134975771459Q1591.3663478447793 576.1429732052655 1590.9866010040969 579.2623222537262L1590.9866010040969 579.2623222537262Q1585.127649747858 579.2623222537262 1579.5399462349633 579.072448833385Q1573.979367496403 578.882575413044 1566.5743041031005 578.882575413044L1566.5743041031005 578.882575413044Q1559.331989355805 578.882575413044 1553.9612840375858 579.072448833385Q1548.5905787193665 579.2623222537262 1543.138499078144 579.2623222537262ZM1651.7189707389093 579.2623222537262L1651.7189707389093 579.2623222537262Q1651.312099123893 576.3328466256065 1651.7189707389093 573.0236241568049L1651.7189707389093 573.0236241568049Q1660.8871444639503 572.0471322807649 1664.7931119681098 571.1520147277284Q1668.6990794722692 570.2840219490264 1669.675571348309 567.246047223569Q1670.6520632243487 564.235197272446 1670.6520632243487 557.399754140167L1670.6520632243487 557.399754140167L1670.6520632243487 466.58600966846024Q1670.6520632243487 458.36720304512477 1669.675571348309 454.86810715598193Q1668.6990794722692 451.34188649250467 1664.7117376451065 450.2840202934615Q1660.6972710436094 449.19902932008387 1651.7189707389093 448.4124108643851L1651.7189707389093 448.4124108643851Q1651.312099123893 445.4829352362655 1651.7189707389093 442.17371276746377L1651.7189707389093 442.17371276746377Q1655.8148116634097 442.17371276746377 1661.3753904019704 442.25508709046704Q1666.9359691405307 442.36358618780486 1672.4151735560877 442.4720852851426Q1677.8943779716446 442.55345960814594 1681.3934738607873 442.55345960814594L1681.3934738607873 442.55345960814594Q1685.1095679446057 442.55345960814594 1690.670146683166 442.4720852851426Q1696.2307254217262 442.36358618780486 1702.0083023549619 442.25508709046704Q1707.7587545138636 442.17371276746377 1711.474848597682 442.17371276746377L1711.474848597682 442.17371276746377Q1712.0715936330398 445.10318839558335 1711.474848597682 448.4124108643851L1711.474848597682 448.4124108643851Q1702.306674872641 449.19902932008387 1698.1837091738062 450.1755211961237Q1694.0878682493058 451.1520130721636 1693.1113763732656 454.08148870028316Q1692.1348844972258 457.01096432840274 1692.1348844972258 464.03628088102283L1692.1348844972258 464.03628088102283L1692.1348844972258 554.8500253527296Q1692.1348844972258 561.4955950646676 1692.2433835945635 565.5100616661648Q1692.3247579175668 569.4974034933276 1692.5417561122426 570.880766984384L1692.5417561122426 570.880766984384L1720.2632754820406 570.880766984384Q1736.4838905340362 570.880766984384 1744.295825542355 563.6384522370884L1744.295825542355 563.6384522370884Q1750.7243970596173 557.399754140167 1757.7497136122374 541.7758841235293L1757.7497136122374 541.7758841235293Q1760.8961874350325 541.1791390881716 1763.8256630631522 541.7758841235293L1763.8256630631522 541.7758841235293Q1761.4658076960554 553.6836600563487 1760.0010698819956 563.1502062990685Q1758.5363320679362 572.6167525417883 1757.5598401918965 579.072448833385L1757.5598401918965 579.072448833385Q1738.6267477064566 579.072448833385 1719.7750295440205 578.9639497360473Q1700.9233113815844 578.882575413044 1681.990218896145 578.882575413044L1681.990218896145 578.882575413044Q1678.2741248123266 578.882575413044 1672.6050469764286 578.9639497360473Q1666.9359691405307 579.072448833385 1661.2940160789667 579.1809479307229Q1655.6249382430688 579.2623222537262 1651.7189707389093 579.2623222537262ZM1815.7696059136056 581.4051794261469L1815.7696059136056 581.4051794261469Q1801.9088462287064 581.4051794261469 1792.333800888649 574.9766079088846Q1782.7587555485916 568.5209116172877 1777.7677970710542 557.6981266578459Q1772.8039633678518 546.8482169240697 1772.8039633678518 533.7740756948693L1772.8039633678518 533.7740756948693Q1772.8039633678518 520.2930628506524 1777.98479526573 508.7650337585152Q1783.1385023892735 497.23700466637797 1793.1204193443477 490.1031890164202Q1803.0752115250875 482.9964981407967 1817.3157180506687 482.9964981407967L1817.3157180506687 482.9964981407967Q1834.512824978704 482.9964981407967 1844.1692446417646 493.24966283921526Q1853.8527890791602 503.5028275376338 1853.8527890791602 519.6963178152947L1853.8527890791602 519.6963178152947Q1853.8527890791602 521.6493015673744 1853.7442899818225 523.1140393814343Q1853.6629156588187 524.578777195494 1853.4459174641433 525.5552690715339L1853.4459174641433 525.5552690715339L1791.9269292736326 524.9856488105106Q1791.9269292736326 525.745142491875 1791.9269292736326 526.3418875272326L1791.9269292736326 526.3418875272326Q1791.9269292736326 545.4919782073476 1800.7153561579912 556.4232622641272Q1809.5037830423498 567.3545463209067 1825.344651253663 567.3545463209067L1825.344651253663 567.3545463209067Q1838.6086659032044 567.3545463209067 1851.4929337120639 558.7559928568891L1851.4929337120639 558.7559928568891Q1853.4459174641433 561.1158482239854 1854.422409340183 563.2587053964062L1854.422409340183 563.2587053964062Q1837.8220474475056 581.4051794261469 1815.7696059136056 581.4051794261469ZM1792.52367430899 517.743334063215L1792.52367430899 517.743334063215L1832.9395880673064 516.9567156075162Q1833.1565862619818 516.576968766834 1833.1565862619818 515.8988494084731Q1833.1565862619818 515.220730050112 1833.1565862619818 515.0037318554365L1833.1565862619818 515.0037318554365Q1833.1565862619818 504.47931941367364 1828.545374625127 497.42687808671906Q1823.9612877626068 490.401561534099 1814.9829874579068 490.401561534099L1814.9829874579068 490.401561534099Q1806.5743074142301 490.401561534099 1800.3356093173088 497.23700466637797Q1794.0969112203875 504.072447798657 1792.52367430899 517.743334063215ZM1986.0589391852232 579.2623222537262L1986.0589391852232 579.2623222537262Q1985.4893189241998 576.1429732052655 1986.0589391852232 573.2134975771459L1986.0589391852232 573.2134975771459Q1991.917890441462 572.8337507364637 1994.8473660695822 571.9386331834272Q1997.7768416977015 571.0706404047252 1998.861832671079 568.1411647766055Q1999.9196988701224 565.2116891484859 1999.9196988701224 558.7559928568891L1999.9196988701224 558.7559928568891L1999.9196988701224 519.3165709746125Q1999.9196988701224 507.78854188247533 1996.5019773039826 501.9295906262362Q1993.0842557378433 496.070639369997 1982.55984329608 496.070639369997L1982.55984329608 496.070639369997Q1969.4585772925457 496.070639369997 1960.2904035675047 505.8355581303956L1960.2904035675047 505.8355581303956Q1960.6701504081866 508.9549071788563 1960.6701504081866 512.4811278423335L1960.6701504081866 512.4811278423335L1960.6701504081866 556.8030091048093Q1960.6701504081866 564.4250706927871 1961.565267961223 567.7342931615889Q1962.4332607399256 571.0706404047252 1965.3627363680448 571.9386331834272Q1968.2922119961645 572.8337507364637 1974.3410366727448 573.2134975771459L1974.3410366727448 573.2134975771459Q1974.7479082877617 576.1429732052655 1974.3410366727448 579.2623222537262L1974.3410366727448 579.2623222537262Q1968.8889570315223 579.2623222537262 1963.4097526159653 579.072448833385Q1957.9305482004083 578.882575413044 1950.5254848071063 578.882575413044L1950.5254848071063 578.882575413044Q1943.2831700598108 578.882575413044 1937.9124647415915 579.072448833385Q1932.5417594233718 579.2623222537262 1927.6593000431726 579.2623222537262L1927.6593000431726 579.2623222537262Q1927.0896797821497 576.1429732052655 1927.6593000431726 573.2134975771459L1927.6593000431726 573.2134975771459Q1933.3283778790706 572.8337507364637 1936.176479184187 571.9386331834272Q1938.997455714969 571.0706404047252 1939.9739475910087 568.1411647766055Q1940.9504394670485 565.2116891484859 1940.9504394670485 558.7559928568891L1940.9504394670485 558.7559928568891L1940.9504394670485 519.3165709746125Q1940.9504394670485 507.78854188247533 1937.6412169982468 501.9295906262362Q1934.3048697551108 496.070639369997 1923.5634591186722 496.070639369997L1923.5634591186722 496.070639369997Q1911.2759363451705 496.070639369997 1902.0806378457955 506.0254315507367L1902.0806378457955 506.0254315507367L1902.0806378457955 556.8030091048093Q1902.0806378457955 564.4250706927871 1902.975755398832 567.7342931615889Q1903.843748177534 571.0706404047252 1906.8817229029914 571.9386331834272Q1909.8925728541144 572.8337507364637 1916.1583957253702 573.2134975771459L1916.1583957253702 573.2134975771459Q1916.538142566052 576.1429732052655 1916.1583957253702 579.2623222537262L1916.1583957253702 579.2623222537262Q1910.6791913098132 579.2623222537262 1904.9287391509115 579.072448833385Q1899.1511622176758 578.882575413044 1891.7460988243733 578.882575413044L1891.7460988243733 578.882575413044Q1884.6936574974188 578.882575413044 1879.0517044358553 579.072448833385Q1873.3826265999573 579.2623222537262 1867.523675343718 579.2623222537262L1867.523675343718 579.2623222537262Q1866.9269303083606 576.1429732052655 1867.523675343718 573.2134975771459L1867.523675343718 573.2134975771459Q1874.1692450556561 572.8337507364637 1877.2885941041163 571.9386331834272Q1880.4079431525774 571.0706404047252 1881.3844350286172 568.1411647766055Q1882.360926904657 565.2116891484859 1882.360926904657 558.7559928568891L1882.360926904657 558.7559928568891L1882.360926904657 515.0037318554365Q1882.360926904657 507.4087950417932 1881.6828075462959 503.6927009579748Q1881.0046881879348 499.97660687415646 1877.9667134624779 498.5118690600967Q1874.9287387370205 497.04713124603694 1867.7135487640594 496.070639369997L1867.7135487640594 496.070639369997Q1867.1168037287016 493.33103716221854 1867.7135487640594 490.9983065694567L1867.7135487640594 490.9983065694567Q1875.9052306130602 489.42506965805916 1883.527292201038 487.2822124856383Q1891.149353789016 485.1393553132175 1898.5815419566525 482.0200062647569L1898.5815419566525 482.0200062647569L1901.890764425454 483.18637156113783L1901.890764425454 497.6438762813946Q1917.7045078624333 482.9964981407967 1934.9016147904686 482.9964981407967L1934.9016147904686 482.9964981407967Q1945.6430254269067 482.9964981407967 1951.0951050681292 487.4720859059794Q1956.5743094836862 491.97479844549656 1958.717166656107 498.6203681574345L1958.717166656107 498.6203681574345Q1967.1258466997838 490.5914349544401 1975.9142735841424 486.79396654761837Q1984.702700468501 482.9964981407967 1993.681000773201 482.9964981407967L1993.681000773201 482.9964981407967Q2006.5652685820605 482.9964981407967 2013.1023391966605 490.5914349544401Q2019.666534585595 498.21349654241783 2019.666534585595 512.4811278423335L2019.666534585595 512.4811278423335L2019.666534585595 556.8030091048093Q2019.666534585595 564.4250706927871 2020.4260282669593 567.7342931615889Q2021.212646722658 571.0706404047252 2024.1421223507778 571.9386331834272Q2027.0715979788974 572.8337507364637 2033.1204226554773 573.2134975771459L2033.1204226554773 573.2134975771459Q2033.7171676908351 576.1429732052655 2033.1204226554773 579.2623222537262L2033.1204226554773 579.2623222537262Q2027.6683430142548 579.2623222537262 2022.1891385986978 579.072448833385Q2016.7370589574753 578.882575413044 2009.4947442101798 578.882575413044L2009.4947442101798 578.882575413044Q2002.0896808168773 578.882575413044 1996.5019773039826 579.072448833385Q1990.9413985654228 579.2623222537262 1986.0589391852232 579.2623222537262ZM2092.1168068328852 581.4051794261469L2092.1168068328852 581.4051794261469Q2077.8491755329705 581.4051794261469 2067.2162639938697 575.2749804265635Q2056.556227680434 569.1176566526455 2050.6972764241955 558.2677469188692Q2044.8383251679556 547.4449619594275 2044.8383251679556 533.3672040798527L2044.8383251679556 533.3672040798527Q2044.8383251679556 518.1502056782316 2050.9956489418737 506.81205000643547Q2057.152972715792 495.47389433463934 2068.2741301929127 489.23519623771807Q2079.422412444368 482.9964981407967 2093.879917164624 482.9964981407967L2093.879917164624 482.9964981407967Q2108.120423690206 482.9964981407967 2118.671960906303 489.23519623771807Q2129.2234981224 495.47389433463934 2135.0824493786395 506.43230316575335Q2140.941400634879 517.3635872225328 2140.941400634879 531.2243469074319L2140.941400634879 531.2243469074319Q2140.941400634879 545.4919782073476 2134.7840768609603 556.9115082021472Q2128.6267530870427 568.3310381969467 2117.6954690302637 574.8681088115469Q2106.7641849734837 581.4051794261469 2092.1168068328852 581.4051794261469ZM2066.9178914761906 531.0344734870908L2066.9178914761906 531.0344734870908Q2066.9178914761906 550.9440578485702 2073.454962090791 562.5805860380452Q2079.9920327053906 574.1899894531858 2093.0932987089254 574.1899894531858L2093.0932987089254 574.1899894531858Q2105.597819677103 574.1899894531858 2112.2162646147062 563.1502062990685Q2118.8618343266444 552.1104231449511 2118.8618343266444 533.5570775001938L2118.8618343266444 533.5570775001938Q2118.8618343266444 513.8373665590556 2112.2162646147062 502.11946404657726Q2105.597819677103 490.401561534099 2092.903425288585 490.401561534099L2092.903425288585 490.401561534099Q2080.3989043204074 490.401561534099 2073.6448355111315 501.1429721705374Q2066.9178914761906 511.88438280697585 2066.9178914761906 531.0344734870908ZM2162.9938421687784 548.2044556407917L2162.9938421687784 548.2044556407917Q2165.923317796898 561.1158482239854 2172.379014088495 567.8427922589268Q2178.8347103800925 574.569736293868 2188.979375981173 574.569736293868L2188.979375981173 574.569736293868Q2196.60143756915 574.569736293868 2201.8636437900323 570.9621413073875Q2207.1529747852483 567.3545463209067 2207.1529747852483 559.5426113125878L2207.1529747852483 559.5426113125878Q2207.1529747852483 553.6836600563487 2204.3048734801314 550.1574393928715Q2201.4838969493503 546.6583435037286 2196.4929384718125 544.217113813629Q2191.5291047686105 541.7758841235293 2185.2632818973543 539.2261553360919L2185.2632818973543 539.2261553360919Q2178.0480919243937 536.2966797079723 2171.7008947301347 532.8789581418329Q2165.3536975358747 529.4612365756933 2161.339230934378 524.2804046778152Q2157.3518891072154 519.1266975542715 2157.3518891072154 510.907890930936L2157.3518891072154 510.907890930936Q2157.3518891072154 501.54984378555406 2162.3157228104174 495.39252001163607Q2167.306681287955 489.23519623771807 2175.199990619277 486.11584718925735Q2183.1204247249343 482.9964981407967 2192.098725029634 482.9964981407967L2192.098725029634 482.9964981407967Q2196.60143756915 482.9964981407967 2201.0770253343335 483.56611840181995Q2205.5797378738507 484.16286343717763 2205.9594847145327 484.16286343717763L2205.9594847145327 484.16286343717763Q2209.8654522186926 484.7324836982009 2213.201799461828 484.84098279553865Q2216.51102193063 484.9494818928764 2216.700895350971 484.9494818928764L2216.700895350971 484.9494818928764Q2216.9178935456466 484.9494818928764 2217.5960129040077 484.9494818928764Q2218.2741322623688 484.9494818928764 2219.4404975587495 484.7324836982009L2219.4404975587495 484.7324836982009Q2219.4404975587495 490.9983065694567 2219.630370979091 497.42687808671906Q2219.8473691737663 503.8825743783159 2220.4169894347897 511.0977643512771L2220.4169894347897 511.0977643512771Q2220.2271160144483 511.0977643512771 2219.630370979091 511.0977643512771L2219.630370979091 511.0977643512771Q2217.894385421687 511.31476254595265 2216.429647607627 511.396136868956Q2214.964909793567 511.5046359662937 2213.58154630251 511.31476254595265L2213.58154630251 511.31476254595265Q2211.0589422894072 500.35635371483863 2206.0679838118704 495.39252001163607Q2201.0770253343335 490.401561534099 2192.098725029634 490.401561534099L2192.098725029634 490.401561534099Q2184.0969166009736 490.401561534099 2179.322956318112 493.9277821975763Q2174.5218712609158 497.42687808671906 2174.5218712609158 503.6927009579748L2174.5218712609158 503.6927009579748Q2174.5218712609158 508.7650337585152 2177.641220309377 511.99288190431366Q2180.787694132172 515.220730050112 2185.2632818973543 517.3635872225328Q2189.7659944368716 519.5064443949536 2193.861835361372 521.0796813063512L2193.861835361372 521.0796813063512Q2201.4838969493503 524.0091569344708 2208.4007144046327 527.6167519209514Q2215.344656634249 531.2243469074319 2219.7388700764286 536.89342474333Q2224.133083518608 542.5625025792281 2224.133083518608 552.1104231449511L2224.133083518608 552.1104231449511Q2224.133083518608 562.2822135203663 2218.95225162073 568.8192841349666Q2213.7714197228515 575.3563547495668 2205.7696112941912 578.3943294750242Q2197.767802865532 581.4051794261469 2188.979375981173 581.4051794261469L2188.979375981173 581.4051794261469Q2183.907043180632 581.4051794261469 2178.9160847030953 580.6456857447826Q2173.9522509998933 579.8590672890838 2173.5453793848765 579.8590672890838L2173.5453793848765 579.8590672890838Q2173.1656325441936 579.8590672890838 2170.3175312390777 579.4521956740672Q2167.4965547082966 579.072448833385 2164.0788331421563 578.6927019927028Q2160.661111576017 578.2858303776862 2158.1113827885792 578.2858303776862L2158.1113827885792 578.2858303776862Q2158.1113827885792 572.2370057011061 2157.6231368505596 564.8048175334693Q2157.13489091254 557.399754140167 2156.5652706515166 548.4214538354672L2156.5652706515166 548.4214538354672Q2156.9450174921985 548.4214538354672 2157.541762527556 548.4214538354672L2157.541762527556 548.4214538354672Q2159.304872859295 548.2044556407917 2160.5526124786793 548.1230813177884Q2161.8274768723977 548.0145822204506 2162.9938421687784 548.2044556407917Z " fill="black" transform="matrix(0.3934117341438629,0,0,0.3934117341438629,0,100.68888805906853)"/></g></svg>